<?xml version="1.0"?><svg xmlns="http://www.w3.org/2000/svg"  viewBox="0 0 50 50" width="50px" height="50px">    <path d="M42,21H8c-1.654,0-3,1.346-3,3v23c0,1.654,1.346,3,3,3h34c1.654,0,3-1.346,3-3V24C45,22.346,43.654,21,42,21z M13,38 c-1.105,0-2-0.895-2-2c0-1.105,0.895-2,2-2s2,0.895,2,2C15,37.105,14.105,38,13,38z M21,38c-1.105,0-2-0.895-2-2 c0-1.105,0.895-2,2-2s2,0.895,2,2C23,37.105,22.105,38,21,38z M29,38c-1.105,0-2-0.895-2-2c0-1.105,0.895-2,2-2s2,0.895,2,2 C31,37.105,30.105,38,29,38z M37,38c-1.105,0-2-0.895-2-2c0-1.105,0.895-2,2-2s2,0.895,2,2C39,37.105,38.105,38,37,38z M12,19v-4.01 C12,7.827,17.827,2,24.99,2h0.02C32.173,2,38,7.827,38,14.99V19h-2v-4.01C36,8.93,31.069,4,25.01,4h-0.02C18.931,4,14,8.93,14,14.99 V19H12z"/></svg>